<svg width="40" height="41" viewBox="0 0 40 41" fill="none" xmlns="http://www.w3.org/2000/svg">
<g id="Group">
<g id="Group_2">
<path id="Vector" d="M30.5263 9.97448L21.0527 8.92188L9.4737 9.97448L8.4209 20.5009L9.4735 31.0273L19.9999 32.3431L30.5263 31.0273L31.5789 20.2379L30.5263 9.97448Z" fill="white"/>
<path id="Vector_2" d="M13.7921 26.3047C13.0053 25.7731 12.4605 24.9969 12.1631 23.9705L13.9895 23.2179C14.1553 23.8495 14.4447 24.3389 14.8579 24.6863C15.2685 25.0337 15.7685 25.2047 16.3527 25.2047C16.9501 25.2047 17.4633 25.0231 17.8921 24.6599C18.3209 24.2967 18.5369 23.8335 18.5369 23.2731C18.5369 22.6995 18.3105 22.2309 17.8579 21.8679C17.4053 21.5049 16.8369 21.3231 16.1579 21.3231H15.1027V19.5153H16.0499C16.6341 19.5153 17.1263 19.3575 17.5263 19.0417C17.9263 18.7259 18.1263 18.2943 18.1263 17.7443C18.1263 17.2549 17.9473 16.8653 17.5895 16.5733C17.2317 16.2813 16.7789 16.1339 16.2289 16.1339C15.6921 16.1339 15.2657 16.2761 14.9499 16.5629C14.6341 16.8497 14.4051 17.2023 14.2605 17.6181L12.4527 16.8655C12.6921 16.1865 13.1317 15.5865 13.7763 15.0681C14.4211 14.5497 15.2447 14.2891 16.2447 14.2891C16.9841 14.2891 17.6499 14.4313 18.2395 14.7181C18.8289 15.0049 19.2921 15.4023 19.6263 15.9075C19.9605 16.4153 20.1263 16.9839 20.1263 17.6153C20.1263 18.2601 19.9711 18.8047 19.6605 19.2521C19.3499 19.6995 18.9683 20.0415 18.5157 20.2811V20.3889C19.1131 20.6389 19.5999 21.0205 19.9841 21.5337C20.3657 22.0469 20.5577 22.6601 20.5577 23.3759C20.5577 24.0917 20.3761 24.7311 20.0129 25.2917C19.6497 25.8523 19.1471 26.2943 18.5103 26.6153C17.8709 26.9363 17.1525 27.0995 16.3551 27.0995C15.4315 27.1021 14.5789 26.8363 13.7921 26.3047Z" fill="#1A73E8"/>
<path id="Vector_3" d="M25.0001 17.242L23.0053 18.692L22.0027 17.171L25.6001 14.5762H26.9791V26.8156H25.0001V17.242Z" fill="#1A73E8"/>
<path id="Vector_4" d="M30.5263 40.5007L39.9999 31.0271L35.2631 28.9219L30.5263 31.0271L28.4211 35.7639L30.5263 40.5007Z" fill="#EA4335"/>
<path id="Vector_5" d="M7.36841 35.7641L9.47361 40.5009H30.5262V31.0273H9.47361L7.36841 35.7641Z" fill="#34A853"/>
<path id="Vector_6" d="M3.1578 0.5C1.4132 0.5 0 1.9132 0 3.6578V31.0262L4.7368 33.1314L9.4736 31.0262V9.9736H30.5262L32.6314 5.2368L30.5264 0.5H3.1578Z" fill="#4285F4"/>
<path id="Vector_7" d="M0 31.0273V37.3431C0 39.0879 1.4132 40.5009 3.1578 40.5009H9.4736V31.0273H0Z" fill="#188038"/>
<path id="Vector_8" d="M30.5264 9.97434V31.0269H40V9.97434L35.2632 7.86914L30.5264 9.97434Z" fill="#FBBC04"/>
<path id="Vector_9" d="M40 9.9736V3.6578C40 1.913 38.5868 0.5 36.8422 0.5H30.5264V9.9736H40Z" fill="#1967D2"/>
</g>
</g>
</svg>
